<svg width="20" height="17" viewBox="0 0 20 17" fill="none" xmlns="http://www.w3.org/2000/svg">
<path d="M3 7.49475C2.44772 7.49475 2 7.94247 2 8.49475C2 9.04704 2.44772 9.49475 3 9.49475V7.49475ZM18.7068 9.20186C19.0973 8.81133 19.0973 8.17817 18.7068 7.78764L12.3428 1.42368C11.9523 1.03316 11.3191 1.03316 10.9286 1.42368C10.5381 1.81421 10.5381 2.44737 10.9286 2.8379L16.5855 8.49475L10.9286 14.1516C10.5381 14.5421 10.5381 15.1753 10.9286 15.5658C11.3191 15.9563 11.9523 15.9563 12.3428 15.5658L18.7068 9.20186ZM3 9.49475H17.9997V7.49475H3V9.49475Z" fill="#EE5007"/>
</svg>
