<svg width="16" height="17" viewBox="0 0 16 17" fill="none" xmlns="http://www.w3.org/2000/svg">
<g clip-path="url(#clip0_556_2860)">
<path d="M9 1.69031C9 1.13718 8.55313 0.690308 8 0.690308C7.44687 0.690308 7 1.13718 7 1.69031V9.27468L4.70625 6.98093C4.31563 6.59031 3.68125 6.59031 3.29063 6.98093C2.9 7.37156 2.9 8.00593 3.29063 8.39656L7.29063 12.3966C7.68125 12.7872 8.31563 12.7872 8.70625 12.3966L12.7063 8.39656C13.0969 8.00593 13.0969 7.37156 12.7063 6.98093C12.3156 6.59031 11.6812 6.59031 11.2906 6.98093L9 9.27468V1.69031ZM2 11.6903C0.896875 11.6903 0 12.5872 0 13.6903V14.6903C0 15.7934 0.896875 16.6903 2 16.6903H14C15.1031 16.6903 16 15.7934 16 14.6903V13.6903C16 12.5872 15.1031 11.6903 14 11.6903H10.8281L9.4125 13.1059C8.63125 13.8872 7.36562 13.8872 6.58437 13.1059L5.17188 11.6903H2ZM13.5 13.4403C13.6989 13.4403 13.8897 13.5193 14.0303 13.66C14.171 13.8006 14.25 13.9914 14.25 14.1903C14.25 14.3892 14.171 14.58 14.0303 14.7206C13.8897 14.8613 13.6989 14.9403 13.5 14.9403C13.3011 14.9403 13.1103 14.8613 12.9697 14.7206C12.829 14.58 12.75 14.3892 12.75 14.1903C12.75 13.9914 12.829 13.8006 12.9697 13.66C13.1103 13.5193 13.3011 13.4403 13.5 13.4403Z" fill="#EE5007"/>
</g>
<defs>
<clipPath id="clip0_556_2860">
<rect width="16" height="16" fill="white" transform="translate(0 0.690308)"/>
</clipPath>
</defs>
</svg>
