<?xml version="1.0" encoding="UTF-8"?>
<svg id="Logos" xmlns="http://www.w3.org/2000/svg" viewBox="0 0 163 185">
  <defs>
    <style>
      .cls-1 {
        fill: #004cce;
      }

      .cls-2 {
        fill: #1baaff;
      }

      .cls-3 {
        fill: #0275e7;
      }
    </style>
  </defs>
  <g>
    <path class="cls-2" d="M56.69,135.47c-3.08-8.62-3.21-18.96-3.21-27.91v-30.11c0-.37,0-.74,0-1.12-8.22,4.82-15.73,8.38-21.61,16.17l-.59,15.06c0,5.23,0,14.42,2.36,24.85,8.24,3.1,15.55,4.43,23.04,3.06Z"/>
    <path class="cls-2" d="M109.51,108.67c8.22-4.82,15.73-8.38,21.61-16.17l.59-15.06c0-5.23,0-14.42-2.36-24.85-8.24-3.1-15.55-4.43-23.04-3.06,3.08,8.62,3.21,18.96,3.21,27.91v30.11c0,.37,0,.74,0,1.12Z"/>
  </g>
  <path class="cls-2" d="M81.5,24.38c4.11,1.99,7.62,4.25,10.64,6.73,7.77-2.42,16.85-4.02,26.72-3.31-6.82-10.06-17.25-19.41-33.22-25.83l-4.14-1.67-4.14,1.67c-35.49,14.28-43.64,43-45.51,61.87,4.59-3.29,8.71-5.67,11.51-7.29l13.33-7.02c3.94-9.29,12.55-19.23,24.81-25.15Z"/>
  <path class="cls-2" d="M81.5,160.62c-4.11-1.99-7.62-4.25-10.64-6.73-7.77,2.42-16.85,4.02-26.72,3.31,6.82,10.06,17.25,19.41,33.22,25.83l4.14,1.67,4.14-1.67c35.49-14.28,43.64-43,45.51-61.87-4.59,3.29-8.71,5.67-11.51,7.29l-13.33,7.02c-3.94,9.29-12.55,19.23-24.81,25.15Z"/>
  <g>
    <path class="cls-3" d="M106.31,135.47c-9.01-1.64-18.03-6.7-25.78-11.18l-26.08-15.06c-.32-.19-.64-.38-.96-.56.07,9.53-.6,17.81,3.2,26.8l12.74,8.04c4.53,2.61,12.49,7.21,22.7,10.39,6.81-5.59,11.61-11.25,14.17-18.43Z"/>
    <path class="cls-3" d="M109.51,76.33c-.07-9.53.6-17.81-3.2-26.8l-12.74-8.04c-4.53-2.61-12.49-7.21-22.7-10.39-6.81,5.59-11.61,11.25-14.17,18.43,9.01,1.64,18.03,6.7,25.78,11.18l26.08,15.06c.32.19.64.38.96.56Z"/>
  </g>
  <path class="cls-3" d="M22.5,58.44c3.78-2.57,7.5-4.48,11.14-5.85,1.79-7.94,4.94-16.6,10.5-24.8-12.12.87-25.43,5.23-38.98,15.85l-3.51,2.75-.63,4.42c-5.38,37.88,15.42,59.29,30.83,70.35-.56-5.62-.56-10.38-.56-13.61l.59-15.06c-6.08-8.06-10.38-20.48-9.38-34.06Z"/>
  <path class="cls-3" d="M140.5,126.56c-3.78,2.57-7.5,4.48-11.14,5.85-1.79,7.94-4.94,16.6-10.5,24.8,12.12-.87,25.43-5.23,38.98-15.85l3.51-2.75.63-4.42c5.38-37.88-15.42-59.29-30.83-70.35.56,5.62.56,10.38.56,13.61l-.59,15.06c6.08,8.06,10.38,20.48,9.38,34.06Z"/>
  <g>
    <path class="cls-1" d="M31.88,92.5c5.93-6.98,14.82-12.26,22.57-16.74l26.08-15.06c.32-.19.65-.37.97-.55-8.28-4.71-15.12-9.43-24.81-10.62l-13.33,7.02c-4.53,2.61-12.48,7.21-20.35,14.47,1.44,8.69,3.94,15.68,8.87,21.49Z"/>
    <path class="cls-1" d="M81.5,124.84c8.28,4.71,15.12,9.43,24.81,10.62l13.33-7.02c4.53-2.61,12.48-7.21,20.35-14.47-1.44-8.69-3.94-15.68-8.87-21.49-5.93,6.98-14.82,12.26-22.57,16.74l-26.08,15.06c-.32.19-.65.37-.97.55Z"/>
  </g>
  <path class="cls-1" d="M140.5,58.44c.33,4.56.13,8.73-.51,12.58,5.98,5.52,11.91,12.58,16.23,21.49,5.3-10.93,8.19-24.64,5.76-41.68l-.63-4.42-3.51-2.75c-30.11-23.6-59.06-16.29-76.34-8.47,5.15,2.33,9.27,4.7,12.07,6.32l12.74,8.04c10.02-1.24,22.92,1.25,34.19,8.91Z"/>
  <path class="cls-1" d="M22.5,126.56c-.33-4.56-.13-8.73.51-12.58-5.98-5.52-11.91-12.58-16.23-21.49-5.3,10.93-8.19,24.64-5.76,41.68l.63,4.42,3.51,2.75c30.11,23.6,59.06,16.29,76.34,8.47-5.15-2.33-9.27-4.7-12.07-6.32l-12.74-8.04c-10.02,1.24-22.92-1.26-34.19-8.91Z"/>
</svg>