<svg width="355" height="132" viewBox="0 0 355 132" fill="none" xmlns="http://www.w3.org/2000/svg">
<rect width="24.7561" height="24.7561" transform="matrix(-0.866041 0.499972 0.866041 0.499972 46.8816 4.10938)" fill="#FB9E70"/>
<path fill-rule="evenodd" clip-rule="evenodd" d="M46.8817 28.8631L25.4426 16.4844L25.4428 21.5612L25.4426 21.5611L25.4432 41.2476L25.4397 41.2455L25.4405 66.0017L46.8795 78.3804L46.8789 58.6939L46.8824 58.696L46.8823 53.6191L46.8824 53.6192L46.8817 28.8631Z" fill="#FF7442"/>
<rect width="24.7561" height="24.7561" transform="matrix(-3.17834e-05 1 0.866009 -0.500028 4.00146 53.6211)" fill="#EE5007"/>
<rect width="24.7561" height="24.7561" transform="matrix(-0.866009 -0.500028 3.18033e-05 1 46.884 103.129)" fill="#FF7442"/>
<path fill-rule="evenodd" clip-rule="evenodd" d="M25.4397 65.9922L3.99985 78.3696L25.4397 90.7469L25.4443 90.7443L25.451 90.7481L25.4443 90.752L46.8841 103.129L68.324 90.752L46.8842 78.3746L46.8644 78.386L46.8577 78.3821L46.8795 78.3696L25.4397 65.9922Z" fill="#FB9E70"/>
<path fill-rule="evenodd" clip-rule="evenodd" d="M68.3239 90.7558L46.8848 103.135L46.884 127.891L68.3183 115.515V115.525L89.7573 103.146L89.7581 78.3898L68.3239 90.7658V90.7558Z" fill="#EE5007"/>
<rect width="24.7561" height="24.7561" transform="matrix(0.866041 -0.499972 -0.866041 -0.499972 89.759 127.895)" fill="#FB9E70"/>
<rect width="24.7561" height="24.7561" transform="matrix(-0.86601 0.500028 -3.19781e-05 1 132.64 53.6133)" fill="#EE5007"/>
<path fill-rule="evenodd" clip-rule="evenodd" d="M111.2 65.992L89.7606 53.6133L89.7614 78.3694L89.8015 78.3926L89.8015 78.4082L89.7582 78.3832L89.759 103.139L111.198 115.518L111.197 90.7619L111.164 90.7426L111.164 90.727L111.2 90.7481L111.2 65.992Z" fill="#FF7442"/>
<path fill-rule="evenodd" clip-rule="evenodd" d="M68.3221 16.4823L46.8831 28.8611L46.8823 53.6172L62.8128 44.419L62.8128 44.4712L84.2518 32.0925V32.0525L89.7594 28.8725L89.7602 4.11636L68.3221 16.4945V16.4823Z" fill="#EE5007"/>
<rect width="24.7561" height="24.7561" transform="matrix(0.86601 0.500028 -3.18907e-05 -1 89.7607 28.8672)" fill="#FF7442"/>
<path fill-rule="evenodd" clip-rule="evenodd" d="M111.2 41.2374L111.192 41.2418L89.7609 28.8692L68.321 41.2465L74.5649 44.8511L74.4463 44.9196L95.8861 57.297L96.0122 57.2241L111.2 65.9922L132.64 53.6148L111.2 41.2374Z" fill="#FB9E70"/>
<path d="M192.901 86.5L178.378 68.7176V86.5H170.373V46.5896H178.378V64.4864L192.901 46.5896H202.564L186.097 66.3733L203.022 86.5H192.901ZM206.229 70.5473C206.229 67.3453 206.858 64.5054 208.116 62.0277C209.412 59.55 211.146 57.6441 213.319 56.3099C215.53 54.9757 217.988 54.3087 220.695 54.3087C223.058 54.3087 225.117 54.7851 226.87 55.7381C228.662 56.6911 230.091 57.8918 231.158 59.3403V54.8233H239.221V86.5H231.158V81.8686C230.129 83.3552 228.7 84.5941 226.87 85.5851C225.078 86.5381 223.001 87.0146 220.638 87.0146C217.969 87.0146 215.53 86.3285 213.319 84.9562C211.146 83.5839 209.412 81.6589 208.116 79.1812C206.858 76.6653 206.229 73.7874 206.229 70.5473ZM231.158 70.6616C231.158 68.7176 230.777 67.0594 230.015 65.6871C229.252 64.2767 228.223 63.2094 226.927 62.4851C225.631 61.7228 224.24 61.3416 222.753 61.3416C221.267 61.3416 219.894 61.7037 218.636 62.428C217.378 63.1522 216.349 64.2195 215.549 65.6299C214.786 67.0022 214.405 68.6413 214.405 70.5473C214.405 72.4532 214.786 74.1304 215.549 75.579C216.349 76.9894 217.378 78.0757 218.636 78.8381C219.932 79.6005 221.305 79.9817 222.753 79.9817C224.24 79.9817 225.631 79.6196 226.927 78.8953C228.223 78.1329 229.252 77.0656 230.015 75.6933C230.777 74.2829 231.158 72.6057 231.158 70.6616ZM251.098 51.0495C249.688 51.0495 248.506 50.6111 247.553 49.7344C246.639 48.8195 246.181 47.695 246.181 46.3609C246.181 45.0267 246.639 43.9213 247.553 43.0445C248.506 42.1297 249.688 41.6723 251.098 41.6723C252.509 41.6723 253.671 42.1297 254.586 43.0445C255.539 43.9213 256.016 45.0267 256.016 46.3609C256.016 47.695 255.539 48.8195 254.586 49.7344C253.671 50.6111 252.509 51.0495 251.098 51.0495ZM255.044 54.8233V86.5H247.039V54.8233H255.044ZM270.958 59.7406C271.987 58.0634 273.321 56.7483 274.96 55.7953C276.637 54.8423 278.543 54.3658 280.678 54.3658V62.771H278.562C276.046 62.771 274.141 63.3619 272.844 64.5436C271.587 65.7252 270.958 67.7837 270.958 70.7188V86.5H262.953V54.8233H270.958V59.7406ZM300.135 87.0146C297.086 87.0146 294.341 86.3475 291.902 85.0134C289.462 83.6411 287.537 81.7161 286.127 79.2384C284.755 76.7606 284.068 73.9017 284.068 70.6616C284.068 67.4215 284.774 64.5626 286.184 62.0849C287.632 59.6072 289.596 57.7012 292.073 56.3671C294.551 54.9948 297.315 54.3087 300.364 54.3087C303.414 54.3087 306.177 54.9948 308.655 56.3671C311.133 57.7012 313.077 59.6072 314.487 62.0849C315.936 64.5626 316.66 67.4215 316.66 70.6616C316.66 73.9017 315.917 76.7606 314.43 79.2384C312.981 81.7161 310.999 83.6411 308.483 85.0134C306.006 86.3475 303.223 87.0146 300.135 87.0146ZM300.135 80.0389C301.584 80.0389 302.937 79.6958 304.195 79.0097C305.491 78.2854 306.52 77.2181 307.283 75.8077C308.045 74.3973 308.426 72.6819 308.426 70.6616C308.426 67.6502 307.626 65.3441 306.025 63.7431C304.462 62.104 302.537 61.2844 300.25 61.2844C297.963 61.2844 296.038 62.104 294.475 63.7431C292.95 65.3441 292.188 67.6502 292.188 70.6616C292.188 73.673 292.931 75.9983 294.418 77.6374C295.942 79.2384 297.848 80.0389 300.135 80.0389ZM334.654 87.0146C332.062 87.0146 329.736 86.5572 327.678 85.6423C325.62 84.6894 323.98 83.4124 322.761 81.8114C321.579 80.2104 320.931 78.4379 320.817 76.4938H328.879C329.031 77.7136 329.622 78.7238 330.651 79.5243C331.719 80.3248 333.034 80.725 334.596 80.725C336.121 80.725 337.303 80.42 338.142 79.8101C339.018 79.2002 339.457 78.4188 339.457 77.4658C339.457 76.4366 338.923 75.6743 337.856 75.1787C336.826 74.645 335.168 74.0733 332.881 73.4634C330.518 72.8916 328.574 72.3007 327.049 71.6908C325.562 71.0809 324.266 70.147 323.161 68.8891C322.094 67.6312 321.56 65.9349 321.56 63.8002C321.56 62.0468 322.055 60.4458 323.046 58.9973C324.076 57.5488 325.524 56.4052 327.392 55.5666C329.298 54.728 331.528 54.3087 334.082 54.3087C337.856 54.3087 340.867 55.2616 343.116 57.1676C345.365 59.0354 346.604 61.5703 346.833 64.7723H339.171C339.056 63.5144 338.523 62.5233 337.57 61.799C336.655 61.0366 335.416 60.6554 333.853 60.6554C332.405 60.6554 331.28 60.9223 330.48 61.4559C329.717 61.9896 329.336 62.7329 329.336 63.6859C329.336 64.7532 329.87 65.5728 330.937 66.1445C332.004 66.6782 333.663 67.2309 335.912 67.8027C338.199 68.3745 340.086 68.9653 341.572 69.5752C343.059 70.1851 344.336 71.1381 345.403 72.4342C346.509 73.6921 347.08 75.3693 347.119 77.4658C347.119 79.2955 346.604 80.9347 345.575 82.3832C344.584 83.8317 343.135 84.9752 341.229 85.8139C339.361 86.6144 337.17 87.0146 334.654 87.0146Z" fill="white"/>
</svg>
