<?xml version="1.0" encoding="UTF-8"?>
<svg version="1.1" xmlns="http://www.w3.org/2000/svg" width="1447" height="445">
<path d="M0 0 C2.51275911 1.26681212 4.81245949 2.57398876 7.1875 4.0625 C8.71258388 4.98855835 10.23869354 5.91292872 11.765625 6.8359375 C12.60029297 7.34350586 13.43496094 7.85107422 14.29492188 8.37402344 C19.30099391 11.3830884 24.373243 14.27782806 29.4375 17.1875 C31.68106737 18.48033377 33.92455587 19.77330442 36.16796875 21.06640625 C40.66975868 23.65896926 45.17261203 26.24967748 49.67578125 28.83984375 C56.12296121 32.54995041 62.56421666 36.27015975 69 40 C70.07588379 40.62310059 71.15176758 41.24620117 72.26025391 41.88818359 C75.36471984 43.69000416 78.46440003 45.49976027 81.5625 47.3125 C82.50319336 47.85793457 83.44388672 48.40336914 84.41308594 48.96533203 C85.26805664 49.46790527 86.12302734 49.97047852 87.00390625 50.48828125 C87.75486572 50.92696533 88.5058252 51.36564941 89.27954102 51.81762695 C91 53 91 53 92 55 C90.35031192 55.95321413 88.70055735 56.90631321 87.05078125 57.859375 C85.98432373 58.47562744 84.91786621 59.09187988 83.8190918 59.72680664 C81.46958898 61.08348373 79.11803994 62.43652011 76.76489258 63.78686523 C71.07120101 67.05668963 65.39645333 70.34753167 59.7734375 73.73828125 C58.82686279 74.3012793 57.88028809 74.86427734 56.9050293 75.44433594 C55.12431889 76.50466731 53.35191245 77.57909928 51.58911133 78.66894531 C50.79013428 79.14041992 49.99115723 79.61189453 49.16796875 80.09765625 C48.13579224 80.72426147 48.13579224 80.72426147 47.08276367 81.36352539 C43.36083994 82.50091317 40.68505435 80.35762159 37.40722656 78.64648438 C36.49424805 78.13408203 35.58126953 77.62167969 34.640625 77.09375 C33.61485352 76.51882812 32.58908203 75.94390625 31.53222656 75.3515625 C30.4490918 74.74054688 29.36595703 74.12953125 28.25 73.5 C27.13850586 72.87867187 26.02701172 72.25734375 24.88183594 71.6171875 C19.78342974 68.755131 14.71890394 65.86352322 9.75 62.78125 C8.59516113 62.0706543 8.59516113 62.0706543 7.41699219 61.34570312 C6.00652295 60.4698011 4.60543721 59.5785432 3.21582031 58.66992188 C1.14841874 57.3315765 1.14841874 57.3315765 -2 56 C-5.70370896 57.12384478 -8.92763367 59.00850052 -12.26171875 60.94921875 C-13.28458984 61.5421875 -14.30746094 62.13515625 -15.36132812 62.74609375 C-16.45896484 63.38675781 -17.55660156 64.02742188 -18.6875 64.6875 C-19.84940348 65.3623338 -21.01151671 66.03680656 -22.17382812 66.7109375 C-24.5872404 68.11107089 -26.9997446 69.51275019 -29.41162109 70.91552734 C-34.93267044 74.12491253 -40.46697919 77.31131496 -46 80.5 C-52.10464706 84.02069651 -58.20884239 87.54216751 -64.31021118 91.06854248 C-66.08362608 92.09345403 -67.85721646 93.11806123 -69.63085938 94.14257812 C-71.84995773 95.42452738 -74.06873016 96.70704107 -76.28710938 97.99023438 C-82.16127054 101.382778 -88.0562835 104.73072173 -94 108 C-87.23385809 112.70298121 -80.21427503 116.77769821 -73 120.75 C-65.81107676 124.74175659 -58.63358497 128.73990593 -51.5625 132.9375 C-46.61405479 135.87426641 -41.65299423 138.78683407 -36.671875 141.66796875 C-35.5487793 142.31765625 -34.42568359 142.96734375 -33.26855469 143.63671875 C-30.97964644 144.95353627 -28.68605914 146.26225653 -26.38769531 147.5625 C-17.07049899 152.8490854 -17.07049899 152.8490854 -12.75 156.01953125 C-9.59724982 158.28861478 -6.83369095 160.06786816 -3 161 C2.02109156 159.65408377 5.82263976 157.26766814 10.0625 154.32177734 C12.56360123 152.61550692 15.15808836 151.11449087 17.78173828 149.60620117 C19.90528673 148.38410134 22.01172713 147.1357966 24.1171875 145.8828125 C29.86313278 142.47842989 35.65029743 139.14611043 41.4375 135.8125 C42.54391846 135.17497803 43.65033691 134.53745605 44.7902832 133.88061523 C47.06173458 132.57206705 49.33330128 131.26371905 51.60498047 129.95556641 C57.0716998 126.80667946 62.53574887 123.65316736 68 120.5 C70.16665311 119.2499765 72.33331979 117.99997653 74.5 116.75 C75.5725 116.13125 76.645 115.5125 77.75 114.875 C87.5 109.25 87.5 109.25 90.75561523 107.37182617 C92.90364046 106.13253733 95.05159075 104.89311859 97.19946289 103.65356445 C102.28655549 100.71797433 107.37441847 97.78374328 112.4649353 94.85409546 C114.87543748 93.46671905 117.28551376 92.07860376 119.69555664 90.69042969 C121.40143968 89.70826185 123.10793986 88.72716615 124.81445312 87.74609375 C125.84376953 87.153125 126.87308594 86.56015625 127.93359375 85.94921875 C128.84165771 85.42674561 129.74972168 84.90427246 130.68530273 84.3659668 C132.49126201 83.30022034 134.25521129 82.16319248 136 81 C141.19125054 81.22248217 144.94646013 83.44759281 149.25 86.125 C150.73210499 87.02243381 152.21525366 87.91814534 153.69921875 88.8125 C154.52341309 89.31136719 155.34760742 89.81023437 156.19677734 90.32421875 C161.18783271 93.3078979 166.23316045 96.19823712 171.27404785 99.09661865 C173.05533804 100.12088179 174.83589084 101.14641506 176.61621094 102.17236328 C179.41036906 103.78233847 182.20498173 105.39151872 185 107 C183.53326335 110.80982538 181.72788578 112.04877743 178.1796875 113.9609375 C177.18203369 114.50741943 176.18437988 115.05390137 175.15649414 115.61694336 C174.07360107 116.19710205 172.99070801 116.77726074 171.875 117.375 C169.57838415 118.63221128 167.28283619 119.89137501 164.98828125 121.15234375 C164.40257858 121.47278152 163.81687592 121.7932193 163.21342468 122.12336731 C157.43467442 125.2906652 151.74345804 128.59891625 146.0625 131.9375 C144.07176872 133.10442965 142.08088178 134.27109381 140.08984375 135.4375 C139.0932373 136.02144531 138.09663086 136.60539063 137.06982422 137.20703125 C131.7667275 140.30437038 126.44605065 143.37113858 121.125 146.4375 C119.50476929 147.37130493 119.50476929 147.37130493 117.85180664 148.32397461 C115.66203666 149.58576826 113.47217645 150.84740534 111.28222656 152.10888672 C105.85340058 155.23680148 100.42680719 158.36858448 95 161.5 C92.83334417 162.75001879 90.6666775 164.00001878 88.5 165.25 C87.4275 165.86875 86.355 166.4875 85.25 167.125 C75.50000001 172.75 75.50000001 172.75 72.24951172 174.62524414 C70.08442929 175.87435518 67.91939018 177.12354129 65.75439453 178.37280273 C60.31384294 181.51202309 54.87252784 184.64990563 49.4296875 187.78515625 C37.54208142 194.63472792 25.66958832 201.50891959 13.82568359 208.43383789 C12.01591941 209.49176425 10.20390262 210.54585105 8.38916016 211.59521484 C6.89340236 212.47469475 5.41106404 213.37789005 3.95068359 214.31494141 C-0.4077016 217.05902296 -0.4077016 217.05902296 -3.37646484 216.76318359 C-6.23713098 215.93101885 -8.52167542 214.80082428 -11.11328125 213.33203125 C-12.10110596 212.77596191 -13.08893066 212.21989258 -14.10668945 211.64697266 C-15.69356567 210.73890869 -15.69356567 210.73890869 -17.3125 209.8125 C-18.42262451 209.1839209 -19.53274902 208.5553418 -20.67651367 207.90771484 C-29.07794011 203.13629942 -37.43033172 198.28095429 -45.76489258 193.39379883 C-53.47830763 188.87304944 -61.2316241 184.42525929 -69 180 C-78.72142984 174.46046897 -88.40895304 168.86624813 -98.06689453 163.21655273 C-108.59084625 157.06233258 -119.15380137 150.97630004 -129.71777344 144.89111328 C-136.21564623 141.14724816 -142.71088783 137.39881723 -149.20556641 133.64941406 C-154.26347279 130.73000309 -159.32278742 127.81312833 -164.38757324 124.90567017 C-166.76923502 123.53825234 -169.1500302 122.16932961 -171.53076172 120.80029297 C-173.20326021 119.83935447 -174.87700336 118.88058328 -176.55078125 117.921875 C-181.47613151 115.08870892 -186.33262961 112.2430177 -191 109 C-188.33859868 106.16041369 -185.82741435 104.13148439 -182.421875 102.2578125 C-181.07089722 101.50600708 -181.07089722 101.50600708 -179.69262695 100.73901367 C-178.72156006 100.20638916 -177.75049316 99.67376465 -176.75 99.125 C-174.65411611 97.95852456 -172.55908947 96.79050775 -170.46484375 95.62109375 C-168.85198486 94.72173096 -168.85198486 94.72173096 -167.20654297 93.80419922 C-162.2070444 90.99117239 -157.25947993 88.09159417 -152.3125 85.1875 C-143.57425972 80.06701164 -134.79984806 75.01352937 -126 70 C-116.27865901 64.46031101 -106.59104908 58.86624937 -96.93310547 53.21655273 C-86.40915375 47.06233258 -75.84619863 40.97630004 -65.28222656 34.89111328 C-59.85340061 31.76319853 -54.42678636 28.63145157 -49 25.5 C-42.86288313 21.95879797 -36.72562239 18.4178489 -30.5866394 14.87988281 C-28.19573403 13.50193062 -25.80501328 12.12365828 -23.41430664 10.74536133 C-21.73016037 9.77459018 -20.04574769 8.80428126 -18.36132812 7.83398438 C-17.33845703 7.24423828 -16.31558594 6.65449219 -15.26171875 6.046875 C-14.36412842 5.52963867 -13.46653809 5.01240234 -12.54174805 4.47949219 C-10.78578486 3.45738702 -9.04550576 2.40802584 -7.31884766 1.3371582 C-4.47777642 -0.30113903 -3.23580596 -0.54169789 0 0 Z " fill="#D81D56" transform="translate(197,0)"/>
<path d="M0 0 C0 71.94 0 143.88 0 218 C-19.5 229.25 -19.5 229.25 -39 240.5 C-41.13082031 241.72976563 -43.26164063 242.95953125 -45.45703125 244.2265625 C-49.93155169 246.80824969 -54.40840857 249.38583014 -58.88671875 251.9609375 C-61.15374771 253.26544797 -63.42067645 254.57013262 -65.6875 255.875 C-66.77095703 256.49834229 -67.85441406 257.12168457 -68.97070312 257.76391602 C-75.63925068 261.60984963 -82.27387986 265.50457218 -88.81518555 269.56396484 C-92.78854186 272 -92.78854186 272 -95 272 C-95 253.52 -95 235.04 -95 216 C-87.41 211.71 -79.82 207.42 -72 203 C-66.93995075 200.02167029 -61.89751221 197.02332278 -56.87304688 193.98632812 C-55.99068359 193.45845703 -55.10832031 192.93058594 -54.19921875 192.38671875 C-53.43440186 191.92483154 -52.66958496 191.46294434 -51.8815918 190.98706055 C-50 190 -50 190 -48 190 C-48 154.69 -48 119.38 -48 83 C-56.58 87.95 -65.16 92.9 -74 98 C-87 105.5 -87 105.5 -93.453125 109.22265625 C-97.36285765 111.47822597 -101.27228606 113.73432104 -105.18127441 115.99118042 C-106.91636728 116.99291394 -108.65153257 117.99452189 -110.38671875 118.99609375 C-112.54050668 120.23933719 -114.69416471 121.48280572 -116.84765625 122.7265625 C-117.84152344 123.30019531 -118.83539063 123.87382812 -119.859375 124.46484375 C-120.78430535 125.01723473 -121.70923571 125.5696257 -122.66219425 126.1387558 C-126 128 -126 128 -129.61032009 129.54172516 C-133.57869477 131.29428002 -136.71010392 133.1243897 -140 136 C-141.97647214 141.24209344 -141.70672686 146.24799074 -141.47485352 151.74414062 C-141.4594672 153.33818356 -141.45046192 154.93229886 -141.44732666 156.52641296 C-141.4277256 159.94898747 -141.36479994 163.36699923 -141.26806831 166.78825378 C-141.11676598 172.20162576 -141.07196668 177.61273765 -141.04270935 183.0279541 C-140.96551904 194.52023843 -140.76780078 206.00941093 -140.5625 217.5 C-140.34354731 229.90659767 -140.14854378 242.31183608 -140.07720131 254.72028303 C-140.04238124 260.09978455 -139.94378093 265.47313849 -139.79542363 270.8506546 C-139.71590162 274.19987806 -139.69045964 277.54796861 -139.67930603 280.89805031 C-139.66304319 282.44639061 -139.62442765 283.9946889 -139.56136894 285.54183006 C-139.37598052 290.25796555 -139.4181744 294.48485936 -141 299 C-144.96758648 302.71572238 -149.02898905 304.77671268 -154 307 C-155.3335272 307.75694384 -156.65862537 308.52937941 -157.96679688 309.3293457 C-159.57651367 310.2433313 -159.57651367 310.2433313 -161.21875 311.17578125 C-162.10560486 311.68083443 -162.10560486 311.68083443 -163.01037598 312.1960907 C-164.83905229 313.2370195 -166.66941837 314.27492633 -168.5 315.3125 C-170.35878905 316.36854208 -172.21720366 317.42523781 -174.07531738 318.48246765 C-175.73899432 319.42870042 -177.40364451 320.37322141 -179.06835938 321.31762695 C-180.98533035 322.41771414 -182.88388356 323.550707 -184.75976562 324.71948242 C-187 326 -187 326 -189 326 C-189.39728835 297.749641 -189.69698158 269.4997011 -189.88080692 241.24711037 C-189.96843377 228.12847082 -190.08787074 215.01156777 -190.2824707 201.89404297 C-190.45202432 190.45937327 -190.56161323 179.02596101 -190.59950441 167.59006917 C-190.62165318 161.53513296 -190.67360674 155.48379356 -190.79741096 149.43001175 C-190.91308252 143.72753727 -190.94835218 138.03012771 -190.92283058 132.32659149 C-190.92749636 130.23741195 -190.96117692 128.14805804 -191.02649307 126.05989456 C-191.48325195 110.69993007 -191.48325195 110.69993007 -187.34261584 106.19799948 C-183.27493128 103.01281145 -178.83503024 100.86741315 -174.08189952 98.89787555 C-171.07485897 97.60100788 -168.36643592 95.96482858 -165.56640625 94.26953125 C-163.56553379 93.11644169 -161.56422606 91.96410711 -159.5625 90.8125 C-157.31379049 89.5169472 -155.06509292 88.22137368 -152.81640625 86.92578125 C-151.68734863 86.27561035 -150.55829102 85.62543945 -149.39501953 84.95556641 C-143.92830025 81.80667949 -138.46422354 78.6532151 -133 75.5 C-126.47767561 71.73634635 -119.95486237 67.97355377 -113.4296875 64.21484375 C-102.93767906 58.16944841 -92.45518324 52.10889781 -82 46 C-70.46744395 39.26160003 -58.90030988 32.58414265 -47.32617188 25.91748047 C-43.92946315 23.95933673 -40.53477542 21.99773073 -37.140625 20.03515625 C-30.7648434 16.34905762 -24.38475609 12.67053158 -18 9 C-17.12375977 8.49581543 -16.24751953 7.99163086 -15.34472656 7.47216797 C-13.0660383 6.16379778 -10.78396067 4.86163845 -8.5 3.5625 C-7.85337402 3.1907666 -7.20674805 2.8190332 -6.54052734 2.43603516 C-2.23172289 0 -2.23172289 0 0 0 Z " fill="#000080" transform="translate(389,119)"/>
<path d="M0 0 C3.71229983 1.48491993 6.90600693 2.96807308 10.359375 4.90625 C11.38345459 5.47980225 12.40753418 6.05335449 13.46264648 6.64428711 C14.54747314 7.25667236 15.6322998 7.86905762 16.75 8.5 C17.87672119 9.13365479 19.00344238 9.76730957 20.16430664 10.42016602 C26.95517743 14.25000564 33.70984746 18.13335601 40.4152832 22.1105957 C46.72724525 25.85304663 53.07941601 29.52403479 59.4375 33.1875 C60.54472412 33.82550537 61.65194824 34.46351074 62.79272461 35.12084961 C65.06337068 36.42889477 67.33412358 37.73675448 69.60498047 39.04443359 C75.07169975 42.19332051 80.53577646 45.3467849 86 48.5 C92.52232439 52.26365365 99.04513763 56.02644623 105.5703125 59.78515625 C117.04511122 66.39682599 128.50495755 73.03261378 139.93725586 79.7175293 C145.22298981 82.80571052 150.51726421 85.87809501 155.82421875 88.9296875 C156.39826447 89.25986877 156.97231018 89.59005005 157.56375122 89.93023682 C160.31900695 91.51470193 163.07545001 93.09702974 165.83398438 94.67578125 C167.80576065 95.808638 169.76552166 96.9627918 171.70979023 98.1422348 C174.94588013 100.06430996 174.94588013 100.06430996 178.38886547 101.36319733 C186.98658717 105.28782191 186.98658717 105.28782191 188.73702645 109.97249031 C189.96214117 116.21855306 189.62669558 122.58947067 189.47583008 128.91992188 C189.47216105 131.06885555 189.47422552 133.21780552 189.48158264 135.36672974 C189.48530885 141.1898178 189.40895602 147.00941603 189.31812119 152.83169365 C189.23678271 158.9200451 189.22921236 165.0084791 189.21379089 171.09729004 C189.17340508 182.6221501 189.06675549 194.14540462 188.93624753 205.66955805 C188.79087618 218.79139477 188.71944836 231.91330871 188.65420687 245.03575039 C188.51836898 272.02472331 188.28975083 299.01227165 188 326 C184.6220259 324.67380825 181.48221021 323.24435047 178.32421875 321.453125 C177.42662842 320.94539551 176.52903809 320.43766602 175.60424805 319.91455078 C174.64172119 319.36524902 173.67919434 318.81594727 172.6875 318.25 C171.67276611 317.67362793 170.65803223 317.09725586 169.61254883 316.50341797 C160.4219122 311.26959599 151.28811786 305.93975958 142.16015625 300.59765625 C132.56057762 294.98321325 122.91864049 289.4419968 113.28222656 283.89111328 C107.85340058 280.76319852 102.42680719 277.63141552 97 274.5 C94.83334417 273.24998121 92.6666775 271.99998122 90.5 270.75 C77.5 263.25 64.5 255.75 51.5 248.25 C49.88883301 247.32054565 49.88883301 247.32054565 48.24511719 246.37231445 C46.09457457 245.13152967 43.94418208 243.89048465 41.79394531 242.64916992 C36.73622187 239.72980526 31.67705507 236.81303791 26.61242676 233.90567017 C24.23076498 232.53825234 21.8499698 231.16932961 19.46923828 229.80029297 C17.79673979 228.83935447 16.12299664 227.88058328 14.44921875 226.921875 C12.91974609 226.04208984 12.91974609 226.04208984 11.359375 225.14453125 C10.02084473 224.37653198 10.02084473 224.37653198 8.65527344 223.59301758 C7.7790332 223.06732178 6.90279297 222.54162598 6 222 C4.45392563 221.28716103 4.45392563 221.28716103 2.87661743 220.55992126 C-0.31374458 217.72079659 -0.43946925 217.35281617 -0.7215271 213.34295654 C-0.73893342 211.37808277 -0.72293666 209.41274874 -0.68115234 207.44824219 C-0.6820285 206.37476532 -0.68290466 205.30128845 -0.68380737 204.19528198 C-0.67962533 200.64507421 -0.63294009 197.09675291 -0.5859375 193.546875 C-0.57474766 191.08637525 -0.56620648 188.62586213 -0.56021118 186.16534424 C-0.5372967 179.68769453 -0.47834891 173.21085141 -0.4119873 166.73352051 C-0.35062241 160.12454134 -0.32320843 153.51543191 -0.29296875 146.90625 C-0.22860989 133.93715577 -0.12734965 120.96862077 0 108 C7.85298602 112.27785055 15.68978145 116.58198549 23.5 120.9375 C24.55058594 121.51951172 25.60117187 122.10152344 26.68359375 122.70117188 C27.72644531 123.28318359 28.76929688 123.86519531 29.84375 124.46484375 C30.76349609 124.976521 31.68324219 125.48819824 32.63085938 126.01538086 C34.29858398 126.99776733 34.29858398 126.99776733 36 128 C37.38376579 128.65961983 37.38376579 128.65961983 38.79548645 129.33256531 C46.42610879 133.35651954 46.42610879 133.35651954 47.959198 137.74690247 C48.27476967 141.12143086 48.23891957 144.32960275 48.07421875 147.71484375 C48.05865433 148.92572159 48.0430899 150.13659943 48.02705383 151.38417053 C47.96564403 155.2383702 47.82769293 159.08544088 47.6875 162.9375 C47.63230627 165.55523668 47.58211914 168.17308404 47.53710938 170.79101562 C47.41606201 177.19642812 47.23220065 183.59770497 47 190 C47.88848633 190.27368408 48.77697266 190.54736816 49.69238281 190.8293457 C52.71022702 191.89744158 55.18008937 193.10086021 57.921875 194.73046875 C58.85128906 195.27832031 59.78070313 195.82617188 60.73828125 196.390625 C61.73214844 196.98359375 62.72601563 197.5765625 63.75 198.1875 C65.91105633 199.46292098 68.072529 200.73763673 70.234375 202.01171875 C71.35005859 202.67091309 72.46574219 203.33010742 73.61523438 204.00927734 C79.05592043 207.20917305 84.52822352 210.35366671 90 213.5 C102.36112937 220.6192907 114.68419114 227.80267624 127 235 C130.96 237.31 134.92 239.62 139 242 C139 207.02 139 172.04 139 136 C129.76 130.72 120.52 125.44 111 120 C98.875 112.9375 98.875 112.9375 92.984375 109.4921875 C83.44177067 103.91570844 73.85942207 98.40788509 64.28222656 92.89111328 C59.93428051 90.38596674 55.58780094 87.87828286 51.24145508 85.37036133 C49.09034782 84.12914474 46.93914427 82.888095 44.7878418 81.6472168 C39.7541364 78.74372822 34.7209768 75.8393059 29.68978882 72.93145752 C27.91637392 71.90654597 26.14278354 70.88193877 24.36914062 69.85742188 C22.15004227 68.57547262 19.93126984 67.29295893 17.71289062 66.00976562 C16.19791992 65.13481445 16.19791992 65.13481445 14.65234375 64.2421875 C13.77570068 63.7354248 12.89905762 63.22866211 11.99584961 62.70654297 C8.01527215 60.43906384 4.00460011 58.22477784 0 56 C0 37.52 0 19.04 0 0 Z " fill="#000080" transform="translate(0,119)"/>
<path d="M0 0 C1.56047445 0.00015913 3.12095416 0.00585397 4.68139648 0.01586914 C5.5012352 0.01728409 6.32107391 0.01869904 7.16575623 0.02015686 C9.79470406 0.0257725 12.42356797 0.0383276 15.05249023 0.05102539 C16.8304838 0.05603838 18.60847869 0.06060163 20.38647461 0.06469727 C24.75434569 0.07574701 29.12215371 0.09302208 33.48999023 0.11352539 C37.35296749 7.51738439 40.70722223 15.10579801 43.96109009 22.79177856 C45.58946594 26.63662361 47.22945886 30.47651194 48.86889648 34.31665039 C49.22837875 35.15909805 49.58786102 36.00154572 49.95823669 36.86952209 C54.36716598 47.18810401 58.84610533 57.47628555 63.32022095 67.76672363 C72.78696205 89.5407544 82.19156002 111.34020811 91.51939392 133.17408752 C93.75663136 138.40785591 96.00801557 143.63534947 98.26733398 148.85961914 C99.11800019 150.83014784 99.96841732 152.80078385 100.8187561 154.77145386 C101.59036961 156.55656607 102.36568112 158.34007841 103.14111328 160.12353516 C103.5888208 161.16179443 104.03652832 162.20005371 104.49780273 163.26977539 C104.88597168 164.1650293 105.27414062 165.0602832 105.67407227 165.98266602 C106.48999023 168.11352539 106.48999023 168.11352539 106.48999023 170.11352539 C92.95999023 170.11352539 79.42999023 170.11352539 65.48999023 170.11352539 C59.93673848 158.21370021 54.66286378 146.18356366 49.48999023 134.11352539 C26.71999023 134.11352539 3.94999023 134.11352539 -19.51000977 134.11352539 C-24.40412158 145.58591446 -24.40412158 145.58591446 -29.29296875 157.06054688 C-29.9054888 158.49365284 -30.51818798 159.92668227 -31.13110352 161.35961914 C-31.4498645 162.11021606 -31.76862549 162.86081299 -32.0970459 163.63415527 C-34.39593797 168.99945359 -34.39593797 168.99945359 -35.51000977 170.11352539 C-38.53978781 170.20223812 -41.54667999 170.22871889 -44.57641602 170.21118164 C-45.48503891 170.20976669 -46.3936618 170.20835175 -47.32981873 170.20689392 C-50.24408197 170.20127732 -53.15826957 170.18872204 -56.07250977 170.17602539 C-58.04321178 170.17101253 -60.013915 170.16644925 -61.98461914 170.16235352 C-66.82644535 170.1513025 -71.66821472 170.13402677 -76.51000977 170.11352539 C-74.38265699 163.26942028 -71.73348727 156.74638251 -68.85375977 150.18774414 C-68.17181297 148.62163139 -68.17181297 148.62163139 -67.47608948 147.02388 C-65.99082935 143.61475322 -64.50036581 140.20792707 -63.01000977 136.80102539 C-61.96976334 134.41515449 -60.92997388 132.0290843 -59.890625 129.64282227 C-58.3039626 126.00004296 -56.71705927 122.35737135 -55.12876892 118.71530151 C-50.24966584 107.52633025 -45.40589778 96.32230403 -40.57250977 85.11352539 C-39.03232427 81.54313561 -37.49189645 77.97285042 -35.95141602 74.40258789 C-35.5803775 73.54253647 -35.20933899 72.68248505 -34.82705688 71.79637146 C-32.27706436 65.88693763 -29.72128288 59.98003178 -27.16235352 54.07446289 C-26.11655681 51.66038613 -25.07082002 49.24628344 -24.02514648 46.83215332 C-23.35514163 45.28532514 -22.68505862 43.73853081 -22.01489258 42.19177246 C-18.68274534 34.49845698 -15.36494993 26.79981934 -12.10766602 19.07446289 C-11.84517059 18.45199677 -11.58267517 17.82953064 -11.31222534 17.1882019 C-10.10143225 14.31413194 -8.89500725 11.43831132 -7.69360352 8.56030273 C-7.28368164 7.58270996 -6.87375977 6.60511719 -6.45141602 5.59790039 C-6.09764893 4.749375 -5.74388184 3.90084961 -5.37939453 3.02661133 C-3.90590089 -0.2158195 -3.91615322 0.12666142 0 0 Z M12.48999023 53.11352539 C5.45148294 68.30402732 -1.13526909 83.63201233 -7.51000977 99.11352539 C5.68999023 99.11352539 18.88999023 99.11352539 32.48999023 99.11352539 C28.3467163 88.30974142 28.3467163 88.30974142 23.93920898 77.62524414 C23.63553909 76.91116898 23.3318692 76.19709381 23.01899719 75.46138 C22.07392486 73.24036159 21.12578445 71.02066978 20.17749023 68.80102539 C19.52559091 67.27051442 18.87389697 65.73991595 18.22241211 64.20922852 C16.6472964 60.5096511 15.06943313 56.81125737 13.48999023 53.11352539 C13.15999023 53.11352539 12.82999023 53.11352539 12.48999023 53.11352539 Z " fill="#000080" transform="translate(819.510009765625,143.886474609375)"/>
<path d="M0 0 C6.40357051 -0.28005518 12.80555342 -0.47198399 19.21386719 -0.60424805 C21.39089956 -0.65940169 23.56752741 -0.73435098 25.74316406 -0.82983398 C43.7600744 -1.60045664 43.7600744 -1.60045664 49.06494141 2.18994141 C51.16440478 5.03896526 52.59257963 7.75979016 54 11 C54.92311514 12.50860077 55.86687094 14.00487243 56.8359375 15.484375 C57.68645892 16.9037612 58.53279387 18.32566411 59.375 19.75 C63.33458711 26.3525748 67.44774485 32.80926851 71.82763672 39.14160156 C74.00233941 42.32466578 75.73410874 45.35286465 77 49 C77.66 49 78.32 49 79 49 C79.26176025 48.28553711 79.52352051 47.57107422 79.79321289 46.83496094 C81.05535574 43.86995937 82.5605948 41.34631058 84.30859375 38.640625 C84.96851318 37.61461182 85.62843262 36.58859863 86.30834961 35.53149414 C87.01096924 34.44860107 87.71358887 33.36570801 88.4375 32.25 C89.15236572 31.14068115 89.86723145 30.0313623 90.60375977 28.88842773 C92.73034582 25.5887193 94.8645651 22.29398953 97 19 C99.50317196 15.13533176 99.50317196 15.13533176 102.00610352 11.27050781 C102.93992333 9.83003938 103.8752386 8.39053899 104.81225586 6.95214844 C107.03871545 3.55360944 107.03871545 3.55360944 109 0 C124.51 0 140.02 0 156 0 C154.65640262 3.35899346 153.68723525 5.71979428 151.78515625 8.609375 C151.35203125 9.27259766 150.91890625 9.93582031 150.47265625 10.61914062 C150.00730469 11.32232422 149.54195312 12.02550781 149.0625 12.75 C148.06368607 14.27596573 147.06499145 15.80200957 146.06640625 17.328125 C145.55609863 18.10478516 145.04579102 18.88144531 144.52001953 19.68164062 C142.16292132 23.2767265 139.83208039 26.88865735 137.5 30.5 C136.58347526 31.91675849 135.66680818 33.33342491 134.75 34.75 C134.29625 35.45125 133.8425 36.1525 133.375 36.875 C129.25 43.25 129.25 43.25 127.87353516 45.37719727 C126.96167023 46.78648726 126.04988569 48.19582927 125.13818359 49.60522461 C122.77372436 53.26019638 120.40765629 56.91411228 118.0390625 60.56640625 C117.55115234 61.31921875 117.06324219 62.07203125 116.56054688 62.84765625 C115.6378961 64.27117459 114.71475961 65.69437831 113.79101562 67.1171875 C112.94652799 68.42055198 112.10623541 69.72664578 111.27050781 71.03564453 C110.37867103 72.41452977 109.46444626 73.77906835 108.53417969 75.13232422 C108.06657227 75.82986816 107.59896484 76.52741211 107.1171875 77.24609375 C106.68776855 77.87056396 106.25834961 78.49503418 105.81591797 79.13842773 C104.75097735 81.56816208 105.04743381 82.55207117 106 85 C107.06342675 86.97413937 107.06342675 86.97413937 108.4140625 88.95703125 C109.17275635 90.11295776 109.17275635 90.11295776 109.94677734 91.29223633 C110.50059082 92.12392334 111.0544043 92.95561035 111.625 93.8125 C112.81778864 95.62494715 114.01049374 97.43744928 115.203125 99.25 C115.82767578 100.19488281 116.45222656 101.13976562 117.09570312 102.11328125 C120.20921576 106.83304708 123.29004063 111.57404455 126.375 116.3125 C127.63778735 118.24885021 128.90081015 120.18504688 130.1640625 122.12109375 C130.79473633 123.08772949 131.42541016 124.05436523 132.07519531 125.05029297 C134.01603421 128.02457196 135.95722303 130.99862237 137.8984375 133.97265625 C140.4200303 137.83590035 142.93936576 141.70060177 145.45703125 145.56640625 C147.75886986 149.10040922 150.06912834 152.62865342 152.38671875 156.15234375 C153.40371509 157.70568383 154.42064627 159.25906657 155.4375 160.8125 C155.90446289 161.51810059 156.37142578 162.22370117 156.85253906 162.95068359 C160 167.77364048 160 167.77364048 160 170 C119.3471132 173.22435961 119.3471132 173.22435961 109.67529297 168.31103516 C105.06114942 163.97262555 102.96485289 158.62526743 100.99560547 152.70214844 C99.41929038 148.42391023 96.89887009 144.91110518 94.3125 141.1875 C93.42261444 139.81799765 92.53712642 138.44562691 91.65625 137.0703125 C89.82902119 134.2546943 87.97240376 131.46125039 86.09375 128.6796875 C85.62670654 127.98721924 85.15966309 127.29475098 84.6784668 126.58129883 C83.78833972 125.26575624 82.89416134 123.95294296 81.99536133 122.64331055 C79 118.21913799 79 118.21913799 79 116 C76.33338527 118.43900156 74.52279257 121.11683456 72.59375 124.1640625 C71.93745605 125.19595703 71.28116211 126.22785156 70.60498047 127.29101562 C69.56301514 128.94133789 69.56301514 128.94133789 68.5 130.625 C67.77926269 131.7600541 67.05806822 132.89481802 66.33642578 134.02929688 C64.89525499 136.29512076 63.45547507 138.56181825 62.01660156 140.82910156 C59.32236044 145.06551847 56.60424262 149.28607283 53.875 153.5 C53.46314453 154.13760254 53.05128906 154.77520508 52.62695312 155.43212891 C51.86027085 156.61623404 51.08391878 157.79416786 50.29541016 158.96385193 C48.95181201 161.00515264 48.95181201 161.00515264 47.82458496 163.30101013 C44.39149771 169.52465961 44.39149771 169.52465961 40.68753052 170.78994751 C37.86823131 171.04211829 35.17893165 171.01357833 32.3515625 170.87890625 C31.33903412 170.86617172 30.32650574 170.85343719 29.28329468 170.84031677 C26.06138659 170.79008474 22.84519322 170.67721487 19.625 170.5625 C17.4362795 170.51734004 15.24747035 170.4762781 13.05859375 170.43945312 C7.70379206 170.34043012 2.35230415 170.19000819 -3 170 C-2.30917985 167.02904128 -1.48492802 164.91089597 0.203125 162.359375 C0.67758057 161.63572754 1.15203613 160.91208008 1.64086914 160.16650391 C2.17188232 159.36905762 2.70289551 158.57161133 3.25 157.75 C3.8164624 156.88938965 4.3829248 156.0287793 4.96655273 155.14208984 C6.25339322 153.18739115 7.5425309 151.23420358 8.83349609 149.28222656 C11.17595018 145.73343766 13.50531838 142.17630507 15.83203125 138.6171875 C27.78506735 120.34249572 39.85766519 102.14938753 52 84 C48.32900681 77.07778724 44.45779662 70.40169602 40.125 63.875 C38.98347569 62.13730919 37.84289627 60.3989974 36.703125 58.66015625 C36.10435547 57.74766113 35.50558594 56.83516602 34.88867188 55.89501953 C31.51502542 50.72378121 28.19735146 45.51678143 24.875 40.3125 C20.22257773 33.03242332 15.56646559 25.75499593 10.875 18.5 C10.43551025 17.81969727 9.99602051 17.13939453 9.54321289 16.43847656 C6.73521263 12.10305058 3.87307655 7.80885103 0.92578125 3.56640625 C0 2 0 2 0 0 Z " fill="#000080" transform="translate(1287,144)"/>
<path d="M0 0 C1.34259592 0.98752923 2.68001474 1.98244573 4 3 C3.3955372 6.0107295 2.47224127 8.07035301 0.70703125 10.57421875 C0.01250854 11.57001953 0.01250854 11.57001953 -0.69604492 12.5859375 C-1.1882251 13.27945313 -1.68040527 13.97296875 -2.1875 14.6875 C-3.18796099 16.11816733 -4.18796383 17.54915515 -5.1875 18.98046875 C-5.67089844 19.66931152 -6.15429688 20.3581543 -6.65234375 21.06787109 C-9.16460224 24.66968516 -11.58542369 28.33228914 -14 32 C-18.02267738 31.33615915 -21.18836264 29.25059911 -24.625 27.1875 C-35.59255316 20.77240844 -46.29697978 16.63341897 -59.125 16.6875 C-59.89714844 16.67138672 -60.66929687 16.65527344 -61.46484375 16.63867188 C-66.43280642 16.63444022 -69.62349986 17.43513716 -74 20 C-74.99 20.33 -75.98 20.66 -77 21 C-79.76207058 25.5065362 -79.74634439 30.89861307 -79 36 C-75.003632 43.56455372 -66.409822 45.61516341 -58.63916016 48.05541992 C-55.16291638 49.04660503 -51.67806342 49.99805496 -48.1875 50.9375 C-8.81118749 61.90902837 -8.81118749 61.90902837 0.6875 77.828125 C5.409674 86.86382333 7.37884157 94.76319884 7.3125 104.875 C7.30512817 106.20108276 7.30512817 106.20108276 7.29760742 107.55395508 C7.18548708 113.78382139 6.65870373 119.28752411 4 125 C3.64808594 125.76183594 3.29617188 126.52367187 2.93359375 127.30859375 C-3.41705927 139.73742953 -13.69018988 147.91989761 -26.61328125 152.93359375 C-51.35617739 160.72460949 -78.58025584 157.74235822 -101.68359375 146.21875 C-108.11538671 142.71962518 -114.0091339 138.69818242 -119.8125 134.25 C-120.41795654 133.79020752 -121.02341309 133.33041504 -121.6472168 132.85668945 C-123.8490505 131.10409236 -125.7197839 129.4618035 -127.1875 127.04296875 C-126.87114814 123.59605157 -124.43971344 121.50518635 -122.1875 119.0625 C-121.17186183 117.91637653 -120.15891127 116.76786671 -119.1484375 115.6171875 C-118.62733398 115.02647461 -118.10623047 114.43576172 -117.56933594 113.82714844 C-115.03112608 110.87195824 -112.66843395 107.78868276 -110.3125 104.6875 C-109.87897217 104.11845947 -109.44544434 103.54941895 -108.9987793 102.96313477 C-107.99643568 101.64417558 -106.99776924 100.322423 -106 99 C-101.86969401 99.5408734 -99.33409692 101.99202439 -96.25 104.5625 C-86.63971339 112.24878866 -75.12982952 118.48007063 -63 121 C-62.2678125 121.15210938 -61.535625 121.30421875 -60.78125 121.4609375 C-53.38208164 122.63334094 -46.11424299 121.66834446 -39.5 118.125 C-36.37062607 115.46503216 -34.2798631 113.54391141 -33.53125 109.4140625 C-33.47986281 104.82775622 -33.61087536 101.75045465 -35.75 97.625 C-42.92272434 90.59850475 -55.58024365 88.52261377 -64.9375 86 C-104.229805 75.37228474 -104.229805 75.37228474 -113.8203125 60.1015625 C-118.47490892 51.1746312 -120.37826768 43.16607709 -120.3125 33.1875 C-120.30512817 31.86528442 -120.30512817 31.86528442 -120.29760742 30.51635742 C-120.07178734 17.95033865 -116.59612081 7.64426495 -107.9375 -1.625 C-78.75956045 -29.25964358 -30.45734887 -20.61254923 0 0 Z " fill="#000080" transform="translate(1050,159)"/>
<path d="M0 0 C6.0243927 4.6172418 11.46812128 9.78483569 16.64624023 15.32421875 C12.29945223 21.43321811 7.44396779 26.92096443 2.34936523 32.40234375 C-0.95999028 35.97950838 -4.17277786 39.63297695 -7.35375977 43.32421875 C-8.07305664 42.59203125 -8.79235352 41.85984375 -9.53344727 41.10546875 C-21.74466877 29.06337774 -34.29476258 21.94936592 -51.66625977 22.01171875 C-52.99560547 21.98754883 -52.99560547 21.98754883 -54.35180664 21.96289062 C-66.98019882 21.95367954 -79.40148168 26.90050277 -88.73266602 35.515625 C-99.72448122 47.77878268 -102.23987302 61.08285231 -101.73657227 77.0234375 C-101.01408988 89.88044319 -95.82172919 101.8662473 -86.33032227 110.73046875 C-75.47947239 119.47977063 -63.30798191 123.30168139 -49.35327148 122.16064453 C-35.69964683 120.55838332 -25.00567584 115.73442318 -15.3605957 105.93164062 C-11.75067907 102.32421875 -11.75067907 102.32421875 -7.35375977 102.32421875 C-5.38359889 103.9456454 -3.68706528 105.52518031 -1.93188477 107.35546875 C-1.42703552 107.86597778 -0.92218628 108.37648682 -0.40203857 108.90246582 C1.20701901 110.53389999 2.80161046 112.17869142 4.39624023 113.82421875 C5.48515894 114.93320074 6.57499242 116.04128529 7.66577148 117.1484375 C10.33665109 119.8634013 12.99463999 122.59042775 15.64624023 125.32421875 C9.08472164 138.95117493 -8.8886361 148.81509307 -22.35375977 154.32421875 C-47.18573473 162.80312559 -74.16094515 160.66462188 -97.79125977 149.44921875 C-103.14816128 146.60810904 -107.75805468 143.26107054 -112.35375977 139.32421875 C-113.15426758 138.6796875 -113.95477539 138.03515625 -114.77954102 137.37109375 C-130.30500251 124.33260354 -139.97009724 105.44037235 -142.35375977 85.32421875 C-144.04615921 60.8801861 -141.03037199 37.32757448 -125.18579102 17.62890625 C-122.96666886 15.13096152 -120.68135024 12.72098587 -118.35375977 10.32421875 C-117.74016602 9.63714844 -117.12657227 8.95007813 -116.49438477 8.2421875 C-87.86831914 -22.7693836 -33.13812232 -24.17944796 0 0 Z " fill="#000080" transform="translate(593.353759765625,156.67578125)"/>
<path d="M0 0 C44.22 0 88.44 0 134 0 C134 11.22 134 22.44 134 34 C118.16 34 102.32 34 86 34 C86 78.88 86 123.76 86 170 C73.46 170 60.92 170 48 170 C48 125.12 48 80.24 48 34 C32.16 34 16.32 34 0 34 C0 22.78 0 11.56 0 0 Z " fill="#000080" transform="translate(1064,144)"/>
<path d="M0 0 C12.54 0 25.08 0 38 0 C38 44.55 38 89.1 38 135 C61.76 135 85.52 135 110 135 C110 146.55 110 158.1 110 170 C73.7 170 37.4 170 0 170 C0 113.9 0 57.8 0 0 Z " fill="#000080" transform="translate(626,144)"/>
<path d="M0 0 C12.54 0 25.08 0 38 0 C38 56.1 38 112.2 38 170 C25.46 170 12.92 170 0 170 C0 113.9 0 57.8 0 0 Z " fill="#000080" transform="translate(1223,144)"/>
</svg>
