<svg xmlns="http://www.w3.org/2000/svg" fill="none" viewBox="0 0 164 50" role="img" aria-label="CLASTIX">
  <path fill="#24456F" d="M59.5 31c2 0 3.7-.8 5-2.5l2.7 2.8a9.8 9.8 0 0 1-7.5 3.7c-3 0-5.3-1-7.2-2.8a9.4 9.4 0 0 1-2.8-7c0-2.8 1-5.1 2.9-7 1.9-1.9 4.2-2.8 7-2.8 3 0 5.7 1.2 7.7 3.5l-2.6 3a6.1 6.1 0 0 0-5-2.5c-1.5 0-2.8.5-4 1.6a5.4 5.4 0 0 0-1.6 4.2c0 1.7.5 3.1 1.5 4.2 1.1 1 2.4 1.6 3.9 1.6zm11 3.7V15.8h4.2V31h8v3.7H70.5zm28.7 0-1.7-4h-8l-1.7 4h-4.4l8-18.9h4.2l8 19h-4.4zm-5.7-13.3L91.2 27h4.7l-2.4-5.5zm16.6-1.8c-.4.3-.6.8-.6 1.3 0 .6.3 1 .7 1.3.5.3 1.7.7 3.5 1.2 1.8.4 3.1 1 4.1 2 1 .9 1.5 2.1 1.5 3.8 0 1.7-.6 3.1-1.9 4.2-1.3 1-3 1.6-5 1.6-3 0-5.6-1.2-8-3.4l2.5-3c2 1.7 3.9 2.6 5.6 2.6a3 3 0 0 0 1.8-.5c.5-.3.7-.8.7-1.3 0-.6-.3-1-.7-1.4a9 9 0 0 0-2.8-1 12 12 0 0 1-4.8-2c-1-.9-1.5-2.2-1.5-4a5 5 0 0 1 2-4.2c1.2-1 2.8-1.4 4.7-1.4a11.5 11.5 0 0 1 7 2.5l-2 3a8.2 8.2 0 0 0-5.1-1.8c-.7 0-1.3.1-1.7.5zm20.6-.1v15.2h-4.2V19.5h-5.3v-3.7H136v3.7h-5.3zm12.6-3.7H139v19h4.2v-19zm15.2 0h5l-5.8 9.1 6.3 9.8h-5.1l-4-6.2-4 6.2h-5l6.3-9.7-6-9.2h5.1l3.6 5.6 3.6-5.6z"/>
  <path fill="#D81D56" d="M37.4 9.1 32.2 12.1 26.9 15.2l-5.2 3-5.2-3-5.3-3 5.3-3L21.7 6l5.2 3 5.3-3-5.3-3-5.2-3-5.2 3-5.3 3.1-5.2 3-5.3 3.1 5.3 3 5.2 3 5.2 3.1 5.3 3 5.2-3 5.3-3 5.2-3 5.3-3.1-5.3-3z"/>
  <path fill="#24456F" d="M15.7 22.6l-5.2-3-5.3-3.1-5.2-3v6l5.2 3 5.3 3.1 5.2 3V41l-5.2-3-5.3-3.1v-6.1l-5.2-3v12.1l5.2 3 5.3 3.1 5.2 3 5.3 3V25.6l-5.3-3zm6.7 3V50l5.3-3V28.6l5.2-3.1 5.2-3v12.2l-5.2 3v6.1 10.5-6.1V13.4l-21 12.2z"/>
</svg>
