<?xml version="1.0" encoding="UTF-8"?>
<svg id="Layer_2" data-name="Layer 2" xmlns="http://www.w3.org/2000/svg" viewBox="0 0 500 191.74">
  <defs>
    <style>
      .cls-1 {
        fill: #1f7a78;
      }

      .cls-2 {
        fill: #fff;
      }

      .cls-3 {
        fill: #005b5b;
      }

      .cls-4 {
        fill: #004244;
      }
    </style>
  </defs>
  <g id="Logos">
    <g>
      <g>
        <path class="cls-2" d="M206.18,50.82h9.65c0,4.14,4.39,7.18,9.41,7.18,5.81,0,9.34-3.11,9.34-6.88,0-4.96-3.06-6.14-10.36-8.21-6.75-1.92-16.48-4.37-16.48-15.39,0-8.58,8.24-15.47,18.59-15.47s18.36,6.88,18.36,15.54h-9.73c0-4.14-3.69-6.96-8.71-6.96-5.41,0-8.79,2.74-8.79,6.22s2.2,5.25,9.34,7.33c7.14,2,17.5,4.37,17.5,16.5,0,9.18-8.55,16.06-19.14,16.06s-18.99-7.18-18.99-15.91Z"/>
        <path class="cls-2" d="M254.34,24.74h9.08v8.27h.3c2.51-5.69,8.86-9.38,15.87-9.38,11.07,0,19.64,9.6,19.64,21.56s-8.56,21.56-19.64,21.56c-6.72,0-12.11-2.88-15.65-9.01h-.29v14.93l-9.3,7.12V24.74ZM289.7,45.19c0-7.82-5.68-12.85-12.55-12.85s-12.4,5.02-12.4,12.85,5.61,12.85,12.4,12.85,12.55-5.02,12.55-12.85Z"/>
        <path class="cls-2" d="M304.72,44.97c0-11.96,9.74-21.34,22.22-21.34s22.22,9.38,22.22,21.63c0,.66-.07,1.85-.29,2.95h-34.25c1.03,5.61,6.28,9.82,12.48,9.82,4.87,0,8.93-2.29,10.85-6.42h10.19c-2.88,8.78-11,15.06-21.19,15.06-12.48,0-22.22-9.74-22.22-21.7ZM338.9,41.2c-.81-4.87-5.61-8.93-12.11-8.93s-11.37,3.76-12.03,8.93h24.14Z"/>
        <path class="cls-2" d="M355.28,44.97c0-11.96,9.74-21.63,21.78-21.63,6.2,0,11.88,2.66,15.8,6.79l-5.98,6.13c-2.29-2.58-5.68-4.21-9.82-4.21-6.94,0-12.47,5.61-12.47,12.92s5.54,12.99,12.47,12.99c3.91,0,7.01-1.4,9.3-3.69l5.98,6.05c-3.91,3.99-9.3,6.35-15.28,6.35-12.03,0-21.78-9.67-21.78-21.7Z"/>
        <path class="cls-2" d="M400.52,20.5l9.23-7.29v11.53h9.95v8.64h-9.95v23.55h9.73v8.64h-18.96V20.5Z"/>
        <path class="cls-2" d="M428.84,24.74h24.58v8.64h-15.28v32.19h-9.3V24.74Z"/>
        <path class="cls-2" d="M456.59,45.19c0-12.03,9.74-21.48,21.7-21.48s21.7,9.45,21.7,21.48-9.75,21.48-21.7,21.48-21.7-9.74-21.7-21.48ZM490.84,45.19c0-7.9-5.61-12.77-12.55-12.77s-12.4,4.87-12.4,12.77,5.54,12.77,12.4,12.77,12.55-5.17,12.55-12.77Z"/>
        <path class="cls-2" d="M272.37,121.91c0-11.89,9.67-21.34,21.56-21.34s21.55,9.45,21.55,21.34-9.67,21.33-21.55,21.33-21.56-9.67-21.56-21.33ZM309.65,121.91c0-9.23-7.09-15.8-15.72-15.8s-15.8,6.57-15.8,15.8,7.09,15.8,15.8,15.8,15.72-6.87,15.72-15.8Z"/>
        <path class="cls-2" d="M323.2,126.56v-25.03h5.83v25.32c0,7.09,4.8,10.85,11.07,10.85s11.15-3.84,11.15-10.85v-25.32h5.76v25.03c0,10.33-7.31,16.68-16.9,16.68s-16.91-6.35-16.91-16.68Z"/>
        <path class="cls-2" d="M364.92,121.83c0-11.96,8.93-21.41,20.45-21.41,8.19,0,14.47,4.65,17.35,11.15h.29v-21.48h5.76v51.97h-5.68v-10.04h-.22c-3.32,7.46-9.97,11.22-17.5,11.22-11.52,0-20.45-9.67-20.45-21.41ZM402.2,121.83c0-9.01-6.72-15.95-15.58-15.95s-15.72,6.94-15.72,15.95,6.72,15.87,15.72,15.87,15.58-7.01,15.58-15.87Z"/>
        <polygon class="cls-2" points="260.38 136.6 260.38 87.29 254.62 91.84 254.62 142.13 267.39 142.13 267.39 136.6 260.38 136.6"/>
        <path class="cls-2" d="M227.99,137.63c-11.81,0-21.11-9.3-21.11-21.7s9.3-21.33,21.11-21.33c6.13,0,11.42,2.28,15.36,5.96l3.52-3.73c-4.85-4.8-11.61-7.84-18.88-7.84-15.06,0-27.17,11.89-27.17,26.94s12.11,27.31,27.17,27.31c7.31,0,14.03-3.03,18.9-7.9l-3.62-3.84c-3.84,3.77-9.15,6.13-15.28,6.13Z"/>
      </g>
      <g>
        <path class="cls-1" d="M72.35,189.5L2.77,134.57c-3.7-2.92-3.7-8.52,0-11.45l69.57-55.05c3.79-3,9.15-3,12.94,0l69.57,55.05c3.69,2.92,3.69,8.53,0,11.45l-69.57,54.92c-3.79,2.99-9.13,2.99-12.92,0Z"/>
        <path class="cls-4" d="M154.74,123.05s0,0-.01,0l-70.69-55.75c-3.38-2.67-7.56-4.12-11.87-4.13l-66.69-.11c-2.92,0-4.39-.53-5.02-2.53-.33.9-.45,1.76-.45,2.44,0,1.34.33,3.86,2.88,5.87,0,0,0,0,0,0l70.7,55.81c3.39,2.67,7.58,4.13,11.89,4.14l66.86.06c2.79.03,4.22.57,4.83,2.52.33-.9.45-1.76.45-2.44,0-1.34-.33-3.86-2.88-5.88Z"/>
        <path class="cls-1" d="M154.85,57.3L85.28,2.25c-3.79-3-9.15-3-12.94,0L2.77,57.3c-3.69,2.92-3.69,8.53,0,11.45l69.03,54.49c.08.09.18.19.31.3,3.9,3.13,5.89,3.9,8.5,4.61,2.61.72,4.86.63,5.79.63h3.47c-2.32-.31-3.33-1.73-3.67-2.87-.43-1.47.28-3.04,1.66-4.29l66.98-52.88c3.7-2.92,3.7-8.52,0-11.45Z"/>
        <path class="cls-3" d="M87.86,121.63l32.52-25.67-36.35-28.67c-3.38-2.67-7.56-4.12-11.87-4.13l-66.69-.11c-2.92,0-4.39-.54-5.02-2.54-.47,1.37-.5,2.39-.38,3.45.13,1.1.6,2.38,1.32,3.35.39.52.87,1.03,1.49,1.52,0,0,0,0,0,0l68.92,54.41s0,0,0,0c0,0,1.64,1.42,3.17,2.4,1.76,1.14,3.68,2,5.7,2.52.03,0,.06.01.1.02,1.53.39,3.11.59,4.7.59h4.4c-2.32-.31-3.33-1.72-3.67-2.86-.43-1.47.28-3.04,1.66-4.29Z"/>
      </g>
      <g>
        <path class="cls-2" d="M212.28,165.41h-6.35v20.24h6.35c5.59,0,10.13-4.53,10.13-10.11s-4.55-10.13-10.13-10.13ZM212.28,183.08h-3.67v-15.1h3.67c4.09,0,7.42,3.39,7.42,7.56s-3.33,7.53-7.42,7.53Z"/>
        <path class="cls-2" d="M235.83,165.05c-5.8,0-10.53,4.71-10.53,10.5s4.72,10.55,10.53,10.55,10.53-4.73,10.53-10.55-4.72-10.5-10.53-10.5ZM235.83,183.47c-4.38,0-7.81-3.48-7.81-7.93s3.43-7.93,7.81-7.93,7.87,3.48,7.87,7.93-3.46,7.93-7.87,7.93Z"/>
        <path class="cls-2" d="M260.04,167.62c2.22,0,4.28.83,5.82,2.34l.18.18,1.65-1.79-.17-.17c-1.96-2.02-4.69-3.18-7.49-3.18-5.92,0-10.55,4.6-10.55,10.47s4.64,10.61,10.55,10.61c2.76,0,5.37-1.09,7.34-3.07l.17-.17-1.71-1.82-.18.18c-1.48,1.45-3.48,2.25-5.62,2.25-4.42,0-7.76-3.43-7.76-7.98s3.41-7.84,7.76-7.84Z"/>
        <path class="cls-2" d="M284.44,178.74c0,2.74-2.04,4.73-4.85,4.73s-4.85-1.99-4.85-4.73v-13.33h-2.71v13.21c0,4.18,3.32,7.45,7.56,7.45s7.53-3.2,7.53-7.45v-13.21h-2.68v13.33Z"/>
        <path class="cls-2" d="M303.02,181.96l-6.18-16.55h-3.59v20.27h2.68v-15.22c.05.15.1.29.16.44l5.63,14.75h2.58l5.63-14.75c.06-.15.11-.3.16-.44v15.22h2.68v-20.27h-3.59l-6.18,16.55Z"/>
        <polygon class="cls-2" points="318.35 185.65 331.31 185.65 331.31 183.08 321.03 183.08 321.03 176.8 329.71 176.8 329.71 174.23 321.03 174.23 321.03 167.98 331.31 167.98 331.31 165.41 318.35 165.41 318.35 185.65"/>
        <path class="cls-2" d="M349.72,181.24c-.17-.33-.34-.67-.55-.98l-9.43-14.84h-2.74v20.24h2.68v-15.62c.1.18.21.37.32.55l9.57,15.07h2.85v-20.18h-2.71v15.77Z"/>
        <polygon class="cls-2" points="356.96 167.96 362.12 167.96 362.12 185.68 364.83 185.68 364.83 167.96 369.92 167.96 369.92 165.41 356.96 165.41 356.96 167.96"/>
        <path class="cls-2" d="M377.84,165.41l-7.18,20.24h2.88l1.26-3.56h9.17l1.26,3.56h2.88l-7.21-20.24h-3.07ZM379.34,168.94c.04.14.09.28.14.42l3.55,10.17h-7.36l3.52-10.17c.05-.15.1-.29.14-.42Z"/>
        <polygon class="cls-2" points="388.85 167.96 394 167.96 394 185.68 396.71 185.68 396.71 167.96 401.81 167.96 401.81 165.41 388.85 165.41 388.85 167.96"/>
        <rect class="cls-2" x="406.33" y="165.44" width="2.71" height="20.21"/>
        <path class="cls-2" d="M424.14,165.05c-5.8,0-10.53,4.71-10.53,10.5s4.72,10.55,10.53,10.55,10.53-4.73,10.53-10.55-4.72-10.5-10.53-10.5ZM424.14,183.47c-4.38,0-7.81-3.48-7.81-7.93s3.43-7.93,7.81-7.93,7.87,3.48,7.87,7.93-3.46,7.93-7.87,7.93Z"/>
        <path class="cls-2" d="M451.95,165.47v15.77c-.17-.33-.34-.67-.55-.98l-9.43-14.84h-2.74v20.24h2.68v-15.62c.1.18.21.37.32.55l9.57,15.07h2.85v-20.18h-2.71Z"/>
      </g>
    </g>
  </g>
</svg>