<svg width="97" height="34" viewBox="0 0 97 34" fill="none" xmlns="http://www.w3.org/2000/svg">
<rect width="6.78798" height="6.78798" transform="matrix(-0.866041 0.499972 0.866041 0.499972 12.7559 0.0297546)" fill="#FB9E70"/>
<path fill-rule="evenodd" clip-rule="evenodd" d="M12.7559 6.81663L6.8775 3.42245L6.87754 4.81447L6.8775 4.81444L6.87767 10.2122L6.87695 10.2118L6.87717 16.9998L12.7556 20.394L12.7554 14.9962L12.7562 14.9966L12.7561 13.6046L12.7562 13.6046L12.7559 6.81663Z" fill="#FF7442"/>
<rect width="6.78798" height="6.78797" transform="matrix(-3.17834e-05 1 0.866009 -0.500028 0.998047 13.6057)" fill="#EE5007"/>
<rect width="6.78797" height="6.78798" transform="matrix(-0.866009 -0.500028 3.18033e-05 1 12.7578 27.1805)" fill="#FF7442"/>
<path fill-rule="evenodd" clip-rule="evenodd" d="M6.87806 16.9978L0.999393 20.3916L6.87806 23.7854L6.87948 23.7846L6.88134 23.7857L6.87938 23.7868L12.7581 27.1806L18.6367 23.7868L12.7581 20.393L12.7528 20.3961L12.7509 20.395L12.7567 20.3916L6.87806 16.9978Z" fill="#FB9E70"/>
<path fill-rule="evenodd" clip-rule="evenodd" d="M18.6345 23.7879L12.7561 27.1821L12.7559 33.9701L18.6325 30.5769V30.5794L24.511 27.1852L24.5112 20.3972L18.6345 23.7904V23.7879Z" fill="#EE5007"/>
<rect width="6.78798" height="6.78798" transform="matrix(0.866041 -0.499972 -0.866041 -0.499972 24.5117 33.9713)" fill="#FB9E70"/>
<rect width="6.78798" height="6.78798" transform="matrix(-0.86601 0.500028 -3.19781e-05 1 36.2695 13.6043)" fill="#EE5007"/>
<path fill-rule="evenodd" clip-rule="evenodd" d="M30.3924 16.9981L24.5139 13.604L24.5141 20.3919L24.5252 20.3983L24.5252 20.4027L24.5131 20.3957L24.5134 27.1837L30.3918 30.5779L30.3916 23.7899L30.3825 23.7847L30.3825 23.7803L30.3926 23.7861L30.3924 16.9981Z" fill="#FF7442"/>
<path fill-rule="evenodd" clip-rule="evenodd" d="M18.6345 3.42167L12.7561 6.81584L12.7559 13.6038L17.124 11.0817L17.124 11.096L23.0024 7.70185V7.69057L24.512 6.81895L24.5122 0.0309753L18.6345 3.4247V3.42167Z" fill="#EE5007"/>
<rect width="6.78798" height="6.78798" transform="matrix(0.86601 0.500028 -3.18907e-05 -1 24.5137 6.81824)" fill="#FF7442"/>
<path fill-rule="evenodd" clip-rule="evenodd" d="M30.3914 10.2097L30.3896 10.2107L24.5134 6.81836L18.6348 10.2122L20.3465 11.2003L20.3136 11.2193L26.1923 14.6131L26.227 14.5931L30.3914 16.9973L36.2701 13.6035L30.3914 10.2097Z" fill="#FB9E70"/>
<path d="M52.796 22L48.8138 17.1242V22H46.6189V11.0568H48.8138V15.964L52.796 11.0568H55.4456L50.9303 16.4814L55.571 22H52.796ZM56.4503 17.6259C56.4503 16.7479 56.6227 15.9692 56.9677 15.2898C57.323 14.6105 57.7986 14.0879 58.3944 13.7221C59.0006 13.3562 59.6747 13.1733 60.4168 13.1733C61.0648 13.1733 61.6292 13.304 62.11 13.5653C62.6013 13.8266 62.9932 14.1558 63.2859 14.553V13.3144H65.4964V22H63.2859V20.7301C63.0037 21.1377 62.6117 21.4774 62.11 21.7492C61.6188 22.0105 61.0491 22.1411 60.4011 22.1411C59.6695 22.1411 59.0006 21.953 58.3944 21.5767C57.7986 21.2004 57.323 20.6726 56.9677 19.9932C56.6227 19.3034 56.4503 18.5143 56.4503 17.6259ZM63.2859 17.6572C63.2859 17.1242 63.1813 16.6695 62.9723 16.2932C62.7633 15.9065 62.4811 15.6139 62.1257 15.4153C61.7703 15.2062 61.3888 15.1017 60.9812 15.1017C60.5736 15.1017 60.1973 15.201 59.8524 15.3996C59.5075 15.5982 59.2253 15.8908 59.0058 16.2776C58.7968 16.6538 58.6922 17.1033 58.6922 17.6259C58.6922 18.1485 58.7968 18.6083 59.0058 19.0055C59.2253 19.3922 59.5075 19.6901 59.8524 19.8992C60.2078 20.1082 60.584 20.2127 60.9812 20.2127C61.3888 20.2127 61.7703 20.1134 62.1257 19.9148C62.4811 19.7058 62.7633 19.4131 62.9723 19.0369C63.1813 18.6502 63.2859 18.1903 63.2859 17.6572ZM68.7533 12.2797C68.3666 12.2797 68.0426 12.1595 67.7813 11.9191C67.5304 11.6682 67.405 11.3599 67.405 10.9941C67.405 10.6283 67.5304 10.3252 67.7813 10.0848C68.0426 9.83393 68.3666 9.70851 68.7533 9.70851C69.14 9.70851 69.4588 9.83393 69.7096 10.0848C69.9709 10.3252 70.1016 10.6283 70.1016 10.9941C70.1016 11.3599 69.9709 11.6682 69.7096 11.9191C69.4588 12.1595 69.14 12.2797 68.7533 12.2797ZM69.8351 13.3144V22H67.6402V13.3144H69.8351ZM74.1986 14.6627C74.4808 14.2028 74.8466 13.8423 75.296 13.581C75.7559 13.3197 76.2785 13.189 76.8638 13.189V15.4937H76.2837C75.5939 15.4937 75.0713 15.6557 74.7159 15.9797C74.371 16.3037 74.1986 16.8681 74.1986 17.6729V22H72.0036V13.3144H74.1986V14.6627ZM82.1989 22.1411C81.3628 22.1411 80.6102 21.9582 79.9413 21.5924C79.2724 21.2161 78.7446 20.6883 78.3579 20.0089C77.9816 19.3295 77.7935 18.5456 77.7935 17.6572C77.7935 16.7688 77.9868 15.9849 78.3735 15.3055C78.7707 14.6262 79.309 14.1036 79.9884 13.7377C80.6677 13.3615 81.4255 13.1733 82.2617 13.1733C83.0978 13.1733 83.8556 13.3615 84.535 13.7377C85.2143 14.1036 85.7474 14.6262 86.1341 15.3055C86.5313 15.9849 86.7299 16.7688 86.7299 17.6572C86.7299 18.5456 86.5261 19.3295 86.1184 20.0089C85.7213 20.6883 85.1778 21.2161 84.4879 21.5924C83.8085 21.9582 83.0456 22.1411 82.1989 22.1411ZM82.1989 20.2284C82.5961 20.2284 82.9672 20.1343 83.3121 19.9462C83.6674 19.7476 83.9496 19.455 84.1587 19.0682C84.3677 18.6815 84.4722 18.2112 84.4722 17.6572C84.4722 16.8315 84.2528 16.1992 83.8138 15.7602C83.3852 15.3108 82.8574 15.086 82.2303 15.086C81.6032 15.086 81.0754 15.3108 80.6468 15.7602C80.2288 16.1992 80.0197 16.8315 80.0197 17.6572C80.0197 18.4829 80.2235 19.1205 80.6312 19.5699C81.0492 20.0089 81.5718 20.2284 82.1989 20.2284ZM91.6636 22.1411C90.9529 22.1411 90.3153 22.0157 89.7509 21.7648C89.1865 21.5035 88.7371 21.1534 88.4026 20.7144C88.0786 20.2754 87.9009 19.7894 87.8696 19.2564H90.0802C90.122 19.5908 90.284 19.8678 90.5662 20.0873C90.8588 20.3068 91.2194 20.4165 91.648 20.4165C92.066 20.4165 92.39 20.3329 92.62 20.1657C92.8604 19.9985 92.9806 19.7842 92.9806 19.5229C92.9806 19.2407 92.8343 19.0316 92.5416 18.8958C92.2594 18.7494 91.8047 18.5927 91.1776 18.4254C90.5296 18.2687 89.9965 18.1066 89.5785 17.9394C89.1708 17.7722 88.8155 17.5161 88.5124 17.1712C88.2197 16.8263 88.0734 16.3612 88.0734 15.7759C88.0734 15.2951 88.2093 14.8561 88.481 14.4589C88.7632 14.0617 89.1604 13.7482 89.6725 13.5182C90.1951 13.2883 90.8066 13.1733 91.5069 13.1733C92.5416 13.1733 93.3673 13.4346 93.984 13.9572C94.6006 14.4694 94.9403 15.1644 95.003 16.0424H92.9022C92.8708 15.6975 92.7245 15.4257 92.4632 15.2271C92.2124 15.0181 91.8727 14.9136 91.4441 14.9136C91.047 14.9136 90.7386 14.9867 90.5191 15.1331C90.3101 15.2794 90.2056 15.4832 90.2056 15.7445C90.2056 16.0372 90.3519 16.2619 90.6446 16.4187C90.9372 16.565 91.3919 16.7165 92.0085 16.8733C92.6357 17.0301 93.153 17.1921 93.5607 17.3593C93.9683 17.5266 94.3184 17.7879 94.6111 18.1432C94.9142 18.4881 95.071 18.948 95.0814 19.5229C95.0814 20.0246 94.9403 20.474 94.6581 20.8712C94.3864 21.2684 93.9892 21.5819 93.4666 21.8119C92.9544 22.0314 92.3535 22.1411 91.6636 22.1411Z" fill="white"/>
</svg>
